<?xml version="1.0" standalone="no"?>
<svg xmlns="http://www.w3.org/2000/svg" viewBox="0 0 165 29" width="165" height="29"><path fill="#61d1b6" fill-rule="nonzero" d="M11.43 5.43L11.43 5.43Q11.43 5.88 11.13 6.28Q10.83 6.68 10.38 7.05Q9.93 7.43 9.40 7.78Q8.87 8.13 8.42 8.50Q7.97 8.86 7.67 9.23Q7.37 9.61 7.37 10.03L7.37 10.03Q7.37 10.38 7.86 10.71Q8.36 11.04 9.28 11.37Q10.21 11.70 11.52 12.04Q12.83 12.39 14.47 12.77L14.47 12.77Q15.29 13.00 15.29 13.61L15.29 13.61Q15.29 13.84 15.18 14.06Q15.07 14.29 14.88 14.46Q14.70 14.63 14.46 14.73Q14.21 14.84 13.97 14.84L13.97 14.84Q13.38 14.84 12.64 14.66Q11.89 14.48 11.10 14.23Q10.30 13.97 9.50 13.66Q8.71 13.35 8.01 13.09Q7.31 12.83 6.78 12.66Q6.25 12.48 5.98 12.48L5.98 12.48Q5.77 12.48 5.57 12.67Q5.38 12.87 5.22 13.21Q5.06 13.55 4.96 14.01Q4.85 14.47 4.80 15.02L4.80 15.02Q4.75 15.64 4.37 15.94Q3.98 16.24 3.32 16.24L3.32 16.24Q2.63 16.24 2.52 15.60L2.52 15.60Q2.34 14.61 2.09 13.59Q1.84 12.57 1.54 11.55Q1.24 10.54 0.90 9.54Q0.55 8.54 0.18 7.63L0.18 7.63Q0.08 7.43 0.04 7.26Q0 7.09 0 6.91L0 6.91Q0 6.76 0.09 6.63Q0.19 6.49 0.35 6.39Q0.52 6.28 0.73 6.22Q0.95 6.16 1.18 6.16L1.18 6.16Q1.66 6.16 1.95 6.36Q2.23 6.56 2.52 6.96L2.52 6.96Q2.66 7.15 2.79 7.46Q2.92 7.77 3.04 8.12Q3.15 8.47 3.27 8.83Q3.39 9.19 3.50 9.47Q3.61 9.76 3.72 9.94Q3.83 10.13 3.94 10.13L3.94 10.13Q4.03 10.13 4.10 10.04Q4.16 9.96 4.25 9.80L4.25 9.80Q4.86 8.53 5.59 7.48Q6.32 6.43 7.08 5.69Q7.84 4.95 8.61 4.54Q9.38 4.13 10.08 4.13L10.08 4.13Q10.36 4.13 10.61 4.22Q10.85 4.32 11.03 4.50Q11.21 4.68 11.32 4.92Q11.43 5.16 11.43 5.43ZM15.86 4.56L15.86 4.56Q15.52 4.56 15.22 4.46Q14.92 4.36 14.70 4.18Q14.48 4.00 14.36 3.75Q14.23 3.50 14.23 3.21L14.23 3.21Q14.23 2.72 14.62 2.41Q15.01 2.11 15.67 2.11L15.67 2.11Q15.97 2.11 16.25 2.22Q16.54 2.33 16.75 2.52Q16.97 2.71 17.10 2.96Q17.23 3.21 17.23 3.48L17.23 3.48Q17.23 3.98 16.86 4.27Q16.49 4.56 15.86 4.56ZM14.25 8.13L14.25 8.13Q14.25 7.72 14.61 7.46Q14.96 7.20 15.55 7.20L15.55 7.20Q16.61 7.20 16.68 7.92L16.68 7.92Q16.72 8.43 16.78 9.06Q16.83 9.69 16.88 10.40Q16.93 11.11 16.97 11.87Q17.02 12.62 17.05 13.35Q17.09 14.09 17.11 14.77Q17.13 15.45 17.13 16.01L17.13 16.01Q17.13 16.59 16.72 16.89Q16.30 17.18 15.50 17.18L15.50 17.18Q15.14 17.18 14.94 17.01Q14.73 16.84 14.73 16.51L14.73 16.51Q14.73 14.89 14.65 13.48Q14.58 12.07 14.49 10.97Q14.40 9.87 14.33 9.13Q14.25 8.40 14.25 8.13ZM19.50 7.05L19.50 7.05Q19.50 6.88 19.65 6.71Q19.80 6.54 20.05 6.40Q20.30 6.27 20.61 6.18Q20.92 6.09 21.23 6.09L21.23 6.09Q21.41 6.09 21.53 6.19Q21.66 6.28 21.75 6.54Q21.84 6.81 21.92 7.28Q22.00 7.76 22.07 8.52L22.07 8.52Q22.11 8.75 22.15 8.88Q22.20 9 22.27 9L22.27 9Q22.37 9 22.48 8.64L22.48 8.64Q23.33 6.16 24.95 6.16L24.95 6.16Q25.70 6.16 26.31 6.63Q26.93 7.10 27.46 8.16Q28.00 9.22 28.48 10.95Q28.96 12.68 29.44 15.21L29.44 15.21Q29.46 15.34 29.47 15.45Q29.48 15.55 29.48 15.64L29.48 15.64Q29.48 15.91 29.36 16.11Q29.24 16.30 29.04 16.42Q28.84 16.55 28.59 16.61Q28.35 16.68 28.10 16.68L28.10 16.68Q27.61 16.68 27.39 16.57Q27.18 16.46 27.12 16.17L27.12 16.17Q26.78 14.39 26.46 13.01Q26.13 11.63 25.82 10.68Q25.51 9.74 25.21 9.25Q24.90 8.75 24.60 8.75L24.60 8.75Q24.29 8.75 24.03 9.13Q23.77 9.52 23.52 10.32Q23.27 11.13 23.04 12.38Q22.82 13.62 22.61 15.34L22.61 15.34Q22.55 15.81 22.14 16.09Q21.73 16.37 21.09 16.37L21.09 16.37Q20.67 16.37 20.45 16.20Q20.23 16.02 20.20 15.71L20.20 15.71Q20.10 13.28 19.97 11.70Q19.85 10.13 19.75 9.17Q19.64 8.21 19.57 7.75Q19.50 7.28 19.50 7.05ZM36.90 7.37L36.90 7.37Q37.46 7.37 37.97 7.46Q38.47 7.55 38.88 7.65Q39.29 7.75 39.59 7.83Q39.88 7.92 40.01 7.92L40.01 7.92Q40.11 7.92 40.21 7.81Q40.30 7.70 40.44 7.57Q40.58 7.44 40.82 7.33Q41.05 7.22 41.44 7.22L41.44 7.22Q41.88 7.22 42.14 7.45Q42.40 7.68 42.40 8.02L42.40 8.02Q42.40 12.30 42.11 15.30Q41.81 18.29 41.16 20.17Q40.50 22.04 39.46 22.89Q38.41 23.73 36.93 23.73L36.93 23.73Q36.25 23.73 35.51 23.43Q34.78 23.12 34.17 22.65Q33.56 22.17 33.17 21.60Q32.78 21.02 32.78 20.50L32.78 20.50Q32.78 20.32 32.96 20.09Q33.15 19.85 33.42 19.63Q33.69 19.41 33.98 19.25Q34.28 19.10 34.49 19.10L34.49 19.10Q34.71 19.10 34.86 19.28Q35.02 19.46 35.15 19.73Q35.29 20.00 35.43 20.33Q35.57 20.65 35.78 20.92Q35.99 21.19 36.29 21.37Q36.60 21.55 37.05 21.55L37.05 21.55Q39.61 21.55 40.05 13.75L40.05 13.75Q40.05 13.39 39.86 13.39L39.86 13.39Q39.69 13.39 39.60 13.56L39.60 13.56Q38.50 15.05 37.03 15.79Q35.55 16.54 33.76 16.54L33.76 16.54Q32.93 16.54 32.23 16.28Q31.52 16.03 31.01 15.58Q30.50 15.13 30.22 14.50Q29.94 13.88 29.94 13.13L29.94 13.13Q29.94 12.39 30.21 11.67Q30.47 10.95 30.94 10.31Q31.42 9.67 32.07 9.13Q32.73 8.59 33.50 8.20Q34.28 7.80 35.14 7.59Q36 7.37 36.90 7.37ZM34.13 14.38L34.13 14.38Q35.73 14.38 37.07 13.37Q38.40 12.35 39.35 10.42L39.35 10.42Q39.38 10.35 39.39 10.31Q39.40 10.27 39.40 10.22L39.40 10.22Q39.40 10.10 39.15 9.97Q38.91 9.84 38.51 9.75Q38.11 9.66 37.60 9.59Q37.09 9.53 36.57 9.53L36.57 9.53Q35.74 9.53 34.97 9.81Q34.20 10.09 33.60 10.56Q33 11.03 32.64 11.63Q32.27 12.22 32.27 12.87L32.27 12.87Q32.27 13.56 32.78 13.97Q33.29 14.38 34.13 14.38ZM50.19 12.62L50.19 12.62Q50.19 12.42 50.24 12.18Q50.29 11.93 50.29 11.64L50.29 11.64Q50.29 11.44 50.12 11.33Q49.95 11.23 49.73 11.10Q49.52 10.97 49.35 10.77Q49.18 10.57 49.18 10.20L49.18 10.20Q49.18 9.93 49.33 9.66Q49.48 9.39 49.76 9.16L49.76 9.16Q50.45 8.65 51.19 8.24Q51.94 7.83 52.68 7.55Q53.43 7.27 54.15 7.11Q54.88 6.96 55.55 6.96L55.55 6.96Q56.67 6.96 57.66 7.38Q58.65 7.79 59.38 8.51Q60.12 9.23 60.54 10.20Q60.97 11.17 60.97 12.27L60.97 12.27Q60.97 13.35 60.52 14.31Q60.07 15.28 59.31 16.01Q58.55 16.73 57.52 17.16Q56.50 17.59 55.36 17.59L55.36 17.59Q54.25 17.59 53.30 17.21Q52.35 16.84 51.66 16.18Q50.96 15.52 50.58 14.61Q50.19 13.70 50.19 12.62ZM55.62 15.48L55.62 15.48Q56.11 15.48 56.64 15.28Q57.16 15.08 57.60 14.70Q58.04 14.32 58.33 13.77Q58.62 13.22 58.62 12.53L58.62 12.53Q58.62 11.82 58.36 11.21Q58.10 10.61 57.65 10.15Q57.20 9.70 56.58 9.45Q55.97 9.19 55.25 9.19L55.25 9.19Q53.95 9.19 53.26 9.86Q52.57 10.54 52.57 11.93L52.57 11.93Q52.57 12.69 52.80 13.34Q53.03 13.99 53.44 14.47Q53.85 14.94 54.40 15.21Q54.96 15.48 55.62 15.48ZM61.50 10.05L61.50 10.05Q61.23 10.03 61.07 9.70Q60.90 9.38 60.90 8.98L60.90 8.98Q60.90 8.79 60.93 8.61Q60.96 8.43 61.03 8.29Q61.10 8.14 61.21 8.06Q61.31 7.97 61.45 7.97L61.45 7.97Q61.89 7.97 62.45 7.94Q63.01 7.91 63.66 7.88L63.66 7.88Q63.98 7.84 64.02 7.49L64.02 7.49Q64.13 5.79 64.31 4.56Q64.50 3.33 64.77 2.48Q65.04 1.63 65.38 1.10Q65.73 0.57 66.15 0.29L66.15 0.29Q66.28 0.20 66.46 0.10Q66.63 0 66.79 0L66.79 0Q67.08 0 67.40 0.15Q67.72 0.29 68.00 0.52Q68.27 0.75 68.45 1.04Q68.63 1.32 68.63 1.61L68.63 1.61Q68.63 1.71 68.58 1.78Q68.53 1.84 68.46 1.90L68.46 1.90Q68.00 2.24 67.65 2.66Q67.30 3.08 67.05 3.69Q66.81 4.30 66.64 5.16Q66.48 6.01 66.40 7.22L66.40 7.22Q66.40 7.41 66.46 7.49Q66.53 7.58 66.70 7.58L66.70 7.58Q67.16 7.58 67.62 7.51Q68.09 7.44 68.51 7.37Q68.93 7.29 69.30 7.22Q69.68 7.15 69.97 7.15L69.97 7.15Q70.18 7.15 70.28 7.40Q70.38 7.65 70.38 8.02L70.38 8.02Q70.38 8.23 70.35 8.45Q70.31 8.67 70.24 8.85Q70.16 9.02 70.04 9.15Q69.93 9.27 69.75 9.29L69.75 9.29L66.63 9.62Q66.39 9.66 66.33 9.82Q66.28 9.98 66.28 10.28L66.28 10.28Q66.28 12.87 66.41 14.73Q66.54 16.59 66.70 17.87Q66.86 19.14 66.98 19.87Q67.11 20.60 67.11 20.93L67.11 20.93Q67.11 21.18 66.92 21.38Q66.73 21.57 66.43 21.71Q66.13 21.86 65.78 21.93Q65.43 22.01 65.12 22.01L65.12 22.01Q64.83 22.01 64.60 21.91Q64.37 21.81 64.34 21.57L64.34 21.57Q64.22 20.75 64.14 19.78Q64.05 18.80 64.00 17.61Q63.95 16.42 63.93 15.01Q63.90 13.59 63.90 11.91L63.90 11.91Q63.90 11.47 63.90 11.06Q63.90 10.65 63.93 10.24L63.93 10.24Q63.93 9.89 63.54 9.89L63.54 9.89L61.50 10.05ZM74.39 8.33L74.39 8.33Q74.39 7.88 74.80 7.63Q75.21 7.39 75.97 7.39L75.97 7.39Q76.15 7.39 76.29 7.44Q76.43 7.49 76.54 7.62Q76.65 7.76 76.75 7.99Q76.84 8.23 76.93 8.59L76.93 8.59Q77.03 9 77.12 9L77.12 9Q77.20 9 77.32 8.66L77.32 8.66Q77.53 7.99 77.88 7.49Q78.22 7.00 78.66 6.66Q79.09 6.33 79.60 6.16Q80.11 6 80.67 6L80.67 6Q81.81 6 82.79 6.43Q83.78 6.86 84.49 7.61Q85.21 8.37 85.62 9.39Q86.03 10.42 86.03 11.61L86.03 11.61Q86.03 12.88 85.59 13.96Q85.15 15.04 84.36 15.81Q83.58 16.59 82.49 17.03Q81.41 17.47 80.12 17.47L80.12 17.47L79.52 17.45Q79.00 17.45 79.00 18.05L79.00 18.05L79.59 23.43Q79.58 23.63 79.46 23.79Q79.34 23.96 79.13 24.09Q78.93 24.22 78.65 24.29Q78.38 24.36 78.08 24.36L78.08 24.36Q77.24 24.36 77.17 23.81L77.17 23.81Q76.92 21.68 76.62 19.76Q76.32 17.84 76.01 16.18Q75.70 14.52 75.41 13.16Q75.12 11.80 74.89 10.79Q74.66 9.79 74.53 9.15Q74.39 8.52 74.39 8.33ZM78.20 11.43L78.20 11.43Q78.20 12.19 78.26 12.93Q78.32 13.68 78.45 14.54L78.45 14.54Q78.52 15.07 79.02 15.14L79.02 15.14Q79.32 15.21 79.71 15.28Q80.09 15.34 80.34 15.34L80.34 15.34Q81.09 15.34 81.70 15.12Q82.31 14.89 82.75 14.48Q83.18 14.06 83.41 13.49Q83.65 12.91 83.65 12.21L83.65 12.21Q83.65 11.36 83.41 10.61Q83.18 9.87 82.78 9.32Q82.37 8.77 81.83 8.45Q81.28 8.13 80.65 8.13L80.65 8.13Q80.10 8.13 79.65 8.37Q79.20 8.61 78.87 9.04Q78.55 9.47 78.38 10.08Q78.20 10.69 78.20 11.43ZM97.31 13.95L97.31 13.95Q97.65 13.65 97.98 13.65L97.98 13.65Q98.17 13.65 98.32 13.75Q98.47 13.84 98.66 14.04L98.66 14.04Q98.84 14.31 98.91 14.48Q98.99 14.65 98.99 14.81L98.99 14.81Q98.99 15.16 98.64 15.48L98.64 15.48Q98.07 15.95 97.42 16.32Q96.76 16.69 96.05 16.95Q95.33 17.20 94.57 17.34Q93.81 17.47 93.06 17.47L93.06 17.47Q92.11 17.47 91.28 17.23Q90.45 16.99 89.79 16.55Q89.14 16.10 88.70 15.47Q88.25 14.85 88.07 14.06L88.07 14.06Q87.96 13.73 87.87 13.63Q87.79 13.54 87.59 13.54L87.59 13.54Q87.15 13.54 86.92 13.32Q86.68 13.11 86.68 12.71L86.68 12.71Q86.68 12.55 86.71 12.50L86.71 12.50L86.73 12.27Q86.79 11.85 86.96 11.66Q87.13 11.47 87.49 11.47L87.49 11.47L87.67 11.47Q88.16 11.47 88.36 11.02L88.36 11.02Q88.72 10.21 89.29 9.54Q89.85 8.87 90.55 8.40Q91.25 7.92 92.06 7.66Q92.86 7.39 93.69 7.39L93.69 7.39Q94.56 7.39 95.31 7.65Q96.07 7.90 96.63 8.34Q97.20 8.79 97.52 9.39Q97.84 9.98 97.84 10.68L97.84 10.68Q97.84 11.16 97.65 11.55Q97.46 11.95 97.11 12.25Q96.76 12.55 96.26 12.74Q95.77 12.93 95.13 12.98L95.13 12.98L91.07 13.39Q90.83 13.39 90.69 13.51Q90.54 13.63 90.54 13.83L90.54 13.83Q90.54 14.13 90.77 14.41Q91.00 14.70 91.38 14.91Q91.76 15.13 92.26 15.26Q92.75 15.39 93.28 15.39L93.28 15.39Q93.79 15.39 94.32 15.29Q94.85 15.19 95.37 15Q95.89 14.81 96.39 14.55Q96.88 14.29 97.31 13.95ZM94.70 10.92L94.70 10.92Q94.88 10.89 95.00 10.75Q95.13 10.62 95.13 10.42L95.13 10.42Q95.13 10.24 95.00 10.09Q94.88 9.94 94.65 9.81Q94.43 9.69 94.14 9.62Q93.84 9.55 93.52 9.55L93.52 9.55Q93.04 9.55 92.53 9.69Q92.03 9.83 91.62 10.06Q91.21 10.29 90.95 10.56Q90.69 10.84 90.69 11.11L90.69 11.11Q90.69 11.38 91.02 11.38L91.02 11.38Q91.22 11.38 91.66 11.33Q92.11 11.29 92.65 11.22Q93.19 11.16 93.74 11.07Q94.29 10.99 94.70 10.92ZM100.82 2.98L100.82 2.98Q100.82 2.36 101.17 2.10Q101.52 1.85 102.33 1.85L102.33 1.85Q102.62 1.85 102.83 1.90Q103.03 1.96 103.18 2.10Q103.32 2.24 103.41 2.47Q103.50 2.70 103.56 3.05L103.56 3.05Q103.70 4.14 103.87 5.30Q104.04 6.46 104.23 7.63L104.23 7.63Q104.30 8.16 104.78 8.16L104.78 8.16Q104.91 8.16 105.21 8.13Q105.50 8.10 105.91 8.06Q106.32 8.02 106.80 7.97Q107.27 7.92 107.75 7.88Q108.22 7.84 108.65 7.81Q109.08 7.78 109.41 7.78L109.41 7.78Q109.66 7.78 109.82 7.88Q109.97 7.98 110.06 8.14Q110.14 8.30 110.17 8.49Q110.20 8.68 110.20 8.88L110.20 8.88Q110.20 9.06 110.14 9.25Q110.07 9.43 109.96 9.58Q109.85 9.73 109.69 9.82Q109.52 9.91 109.31 9.91L109.31 9.91Q108.29 9.91 107.26 9.98Q106.22 10.04 105.19 10.15L105.19 10.15Q104.66 10.22 104.66 10.68L104.66 10.68Q104.66 10.71 104.67 10.76Q104.68 10.82 104.68 10.85L104.68 10.85Q104.82 11.87 104.95 12.76Q105.07 13.65 105.16 14.35Q105.25 15.05 105.30 15.51Q105.35 15.97 105.35 16.13L105.35 16.13Q105.35 16.55 105.27 16.83Q105.19 17.12 105 17.30Q104.81 17.48 104.50 17.56Q104.19 17.64 103.72 17.64L103.72 17.64Q103.28 17.64 103.07 17.43Q102.86 17.21 102.83 16.78L102.83 16.78Q102.76 15.40 102.61 14.00Q102.46 12.60 102.26 11.20L102.26 11.20Q102.15 10.70 101.73 10.70L101.73 10.70Q101.70 10.70 101.65 10.71Q101.60 10.72 101.57 10.72L101.57 10.72Q100.84 10.89 100.20 11.05Q99.55 11.21 98.99 11.40L98.99 11.40Q98.67 11.51 98.43 11.55Q98.18 11.59 97.98 11.59L97.98 11.59Q97.71 11.59 97.58 11.35Q97.45 11.11 97.45 10.75L97.45 10.75Q97.45 10.62 97.48 10.45Q97.50 10.28 97.56 10.11Q97.63 9.94 97.75 9.79Q97.88 9.64 98.09 9.55L98.09 9.55Q98.58 9.35 99.40 9.13Q100.22 8.92 101.25 8.73L101.25 8.73Q101.48 8.67 101.62 8.54Q101.75 8.40 101.75 8.13L101.75 8.13Q101.75 8.07 101.75 8.01Q101.75 7.95 101.73 7.88L101.73 7.88Q101.54 6.80 101.37 5.91Q101.20 5.03 101.08 4.39Q100.96 3.76 100.89 3.40Q100.82 3.04 100.82 2.98ZM112.44 6.34L112.44 6.34Q113.23 6.34 114.06 6.54Q114.89 6.75 115.58 7.07Q116.27 7.39 116.72 7.79Q117.16 8.19 117.16 8.57L117.16 8.57Q117.16 8.75 117 8.98Q116.84 9.21 116.60 9.42Q116.37 9.62 116.09 9.76Q115.82 9.89 115.61 9.89L115.61 9.89Q115.32 9.89 114.98 9.66Q114.63 9.42 114.22 9.13Q113.80 8.85 113.31 8.61Q112.82 8.38 112.24 8.38L112.24 8.38Q111.87 8.38 111.63 8.56Q111.39 8.74 111.39 9.07L111.39 9.07Q111.39 9.36 111.67 9.66Q111.95 9.96 112.41 10.28Q112.88 10.59 113.46 10.95Q114.05 11.30 114.66 11.70Q115.28 12.09 115.86 12.56Q116.45 13.03 116.91 13.58Q117.38 14.13 117.66 14.78Q117.94 15.43 117.94 16.20L117.94 16.20Q117.94 16.85 117.70 17.39Q117.47 17.93 117.04 18.32Q116.60 18.70 116.00 18.91Q115.41 19.13 114.69 19.13L114.69 19.13Q113.79 19.13 113.03 18.85Q112.27 18.57 111.71 18.09Q111.16 17.61 110.85 16.95Q110.54 16.28 110.54 15.48L110.54 15.48Q110.54 14.45 110.91 13.98Q111.28 13.51 112.08 13.51L112.08 13.51Q112.57 13.51 112.86 13.70Q113.16 13.89 113.16 14.16L113.16 14.16Q113.16 14.30 113.11 14.44Q113.06 14.59 113.01 14.75Q112.96 14.91 112.92 15.08Q112.88 15.26 112.88 15.43L112.88 15.43Q112.88 15.74 113.02 16.02Q113.16 16.30 113.40 16.52Q113.64 16.73 113.95 16.86Q114.27 16.99 114.62 16.99L114.62 16.99Q115.56 16.99 115.56 16.22L115.56 16.22Q115.56 15.61 115.08 15.06Q114.60 14.52 113.87 14.00Q113.14 13.48 112.31 12.95Q111.47 12.42 110.74 11.85Q110.02 11.27 109.54 10.62Q109.05 9.97 109.05 9.21L109.05 9.21Q109.05 8.58 109.32 8.05Q109.58 7.52 110.04 7.14Q110.50 6.76 111.11 6.55Q111.73 6.34 112.44 6.34Z" transform="translate(0, 2.319)"></path><line x1="126.9375" y1="2%" x2="126.9375" y2="98%" stroke="#61d1b6" stroke-linecap="round"></line><g fill="#61d1b6" color="#61d1b6" transform="translate(135.9375 0) scale(0.29)"><svg width="100.0" height="100.0" x="0.0" y="0.0" viewBox="0 0 100 100"><path d="M69.3,55.3C65.8,47.8,58.2,43,50,43s-15.8,4.8-19.3,12.3L20.6,77.1c-1.6,3.5-1.4,7.5,0.7,10.8c2.1,3.2,5.6,5.2,9.4,5.2h2.1  c3.8,0,7.2-1.9,9.3-5c1.8-2.6,4.7-4.2,7.9-4.2c3.2,0,6.1,1.6,7.9,4.2c2.1,3.1,5.6,5,9.3,5h2.1c3.8,0,7.4-1.9,9.4-5.2  s2.3-7.3,0.7-10.8L69.3,55.3z M75.4,85.7C74,87.8,71.8,89,69.3,89h-2.1c-2.4,0-4.7-1.2-6-3.2c-2.5-3.8-6.7-6-11.2-6s-8.7,2.2-11.2,6  c-1.3,2-3.6,3.2-6,3.2h-2.1c-2.5,0-4.7-1.2-6.1-3.3c-1.3-2.1-1.5-4.7-0.5-6.9L34.4,57c2.8-6.1,9-10,15.6-10c6.7,0,12.8,3.9,15.6,10  l10.2,21.8C76.9,81,76.7,83.6,75.4,85.7z M36,37c5.6,0,10-6.6,10-15S41.6,7,36,7s-10,6.6-10,15S30.4,37,36,37z M36,11  c2.8,0,6,4.5,6,11s-3.2,11-6,11s-6-4.5-6-11S33.2,11,36,11z M64,37c5.6,0,10-6.6,10-15S69.6,7,64,7s-10,6.6-10,15S58.4,37,64,37z   M64,11c2.8,0,6,4.5,6,11s-3.2,11-6,11s-6-4.5-6-11S61.2,11,64,11z M24.6,49.1c0.4-2.5-0.1-5.5-1.3-8.3c-1.2-2.8-3-5.2-5-6.7  c-2.3-1.7-4.9-2.2-7-1.3c-2.1,0.9-3.6,3.1-4,5.9c-0.4,2.5,0.1,5.5,1.3,8.3c1.2,2.8,3,5.2,5,6.7c1.6,1.1,3.2,1.7,4.8,1.7  c0.8,0,1.5-0.1,2.2-0.4C22.8,54.2,24.2,52,24.6,49.1z M19.1,51.4c-0.8,0.3-1.9,0-3.1-0.8c-1.5-1.1-2.8-2.9-3.7-5  c-0.9-2.1-1.3-4.3-1-6.1c0.2-1.4,0.8-2.5,1.6-2.8c0.2-0.1,0.4-0.1,0.7-0.1c0.7,0,1.5,0.3,2.4,1c1.5,1.1,2.8,2.9,3.7,5  c0.9,2.1,1.3,4.3,1,6.1C20.5,50,19.9,51,19.1,51.4z M88.7,32.9c-4.1-1.7-9.4,1.7-12,7.9c0,0,0,0,0,0c-1.2,2.8-1.6,5.7-1.3,8.3  c0.4,2.9,1.9,5,4,5.9c0.7,0.3,1.5,0.4,2.2,0.4c1.6,0,3.2-0.6,4.8-1.7c2.1-1.5,3.9-3.9,5-6.7C94,40.9,92.8,34.7,88.7,32.9z   M87.7,45.6c-0.9,2.1-2.2,3.9-3.7,5c-1.2,0.9-2.3,1.2-3.1,0.8c-0.8-0.3-1.4-1.4-1.6-2.8c-0.3-1.8,0.1-4,1-6.1v0  c1.8-4.2,5.1-6.5,6.8-5.8C88.9,37.4,89.5,41.3,87.7,45.6z M58,64c0,1.1-0.9,2-2,2h-4v4c0,1.1-0.9,2-2,2s-2-0.9-2-2v-4h-4  c-1.1,0-2-0.9-2-2s0.9-2,2-2h4v-4c0-1.1,0.9-2,2-2s2,0.9,2,2v4h4C57.1,62,58,62.9,58,64z"></path></svg></g></svg>